<?xml version="1.0" encoding="utf-8"?>
<!-- Generator: Adobe Illustrator 22.1.0, SVG Export Plug-In . SVG Version: 6.00 Build 0)  -->
<svg version="1.1" id="Layer_1" xmlns="http://www.w3.org/2000/svg" xmlns:xlink="http://www.w3.org/1999/xlink" x="0px" y="0px"
	 viewBox="0 0 1323 340" style="enable-background:new 0 0 1323 340;" xml:space="preserve">
<style type="text/css">
	.st0{fill:#17162B;}
	.st1{clip-path:url(#SVGID_2_);fill:#FFFFFF;}
	.st2{clip-path:url(#SVGID_2_);fill:#5440FF;}
	.st3{clip-path:url(#SVGID_2_);fill:#229AFF;}
	.st4{clip-path:url(#SVGID_2_);fill:#25DDF5;}
</style>
<g>
	<path class="st0" d="M429,199V97h36v102c0,15.5-4.6,27.6-13.8,36.3c-9.2,8.7-20.9,13-35.3,13s-26-4.3-35.2-12.9
		c-9.1-8.6-13.7-20.7-13.7-36.4h35.8c0.1,5.7,1.4,9.9,3.8,12.6c2.4,2.7,5.5,4.1,9.3,4.1c3.8,0,6.9-1.4,9.4-4.1
		C427.8,208.9,429,204.7,429,199z"/>
	<path class="st0" d="M495.4,231.4c-12-11.2-18-25.9-18-44.2s6-32.9,17.9-43.9c11.9-11,26.6-16.5,44.2-16.5
		c17.6,0,32.3,5.5,44.1,16.5c11.8,11,17.7,25.6,17.7,43.9s-5.9,33-17.6,44.2c-11.8,11.2-26.4,16.8-44,16.8
		C522.1,248.1,507.4,242.5,495.4,231.4z M557.1,209.5c4.8-5.1,7.2-12.5,7.2-22.1c0-9.6-2.5-17-7.4-22c-5-5-10.8-7.5-17.6-7.5
		c-6.8,0-12.6,2.5-17.5,7.5c-4.9,5-7.3,12.4-7.3,22c0,9.6,2.5,17,7.5,22.1c5,5.1,10.9,7.7,17.7,7.7S552.3,214.6,557.1,209.5z"/>
	<path class="st0" d="M641.9,114.7c-4.1,4.1-9.1,6.2-15.1,6.2s-11-2.1-15.1-6.2c-4.1-4.1-6.2-9.2-6.2-15.2c0-6,2.1-11.1,6.2-15.2
		c4.1-4.1,9.1-6.2,15.1-6.2s11,2.1,15.1,6.2c4.1,4.1,6.2,9.2,6.2,15.2C648.1,105.5,646.1,110.6,641.9,114.7z M609,247V128h36v119
		H609z"/>
	<path class="st0" d="M697,128v17.8c7.5-12.5,19.6-18.7,36.1-18.7c13.7,0,24.7,4.5,33.2,13.6c8.5,9.1,12.7,21.4,12.7,37V247h-36
		v-64.4c0-7.7-2-13.6-6-17.7c-4-4.2-9.5-6.3-16.5-6.3c-7,0-12.5,2.1-16.5,6.3c-4,4.2-6,10.1-6,17.7l-1,64.4h-36V128H697z"/>
	<path class="st0" d="M844.1,216H857v30h-18.3c-13.3,0-23.5-2.9-30.8-8.8c-7.3-5.9-10.9-15.9-10.9-30.1V158h-11v-30h11V99h36v29h24
		v30h-24v49.7C833,213.2,836.7,216,844.1,216z"/>
	<path class="st0" d="M866,98h64.7c15.1,0,27.2,3.7,36.2,11c9,7.4,13.5,16.7,13.5,28c0,16.8-9.8,28.2-29.5,34.2
		c10,1.4,18,5.6,24,12.5c5.9,6.9,8.9,15.1,8.9,24.4c0,11.9-4.4,21.3-13.1,28.3c-8.7,7-20.8,10.5-36.4,10.5H866V98z M903,125v32h23.6
		c5.2,0,9.4-1.3,12.5-4c3.2-2.7,4.7-6.6,4.7-11.9c0-5.3-1.6-9.3-4.7-12c-3.2-2.7-7.3-4.1-12.5-4.1H903z M903,219h27.4
		c5,0,9.1-1.5,12.3-4.5c3.3-3,4.9-7.1,4.9-12.3c0-5.2-1.6-9.4-4.7-12.5c-3.1-3.1-7.2-4.7-12.1-4.7H903V219z"/>
	<path class="st0" d="M1024.5,244.2L978.5,128h41.2l26.3,77.5l28.9-77.5h38l-75.6,175h-38L1024.5,244.2z"/>
	<path class="st0" d="M1164.1,216h12.9v30h-18.3c-13.3,0-23.5-2.9-30.8-8.8c-7.3-5.9-10.9-15.9-10.9-30.1V158h-11v-30h11V99h36v29
		h24v30h-24v49.7C1153,213.2,1156.7,216,1164.1,216z"/>
	<path class="st0" d="M1236.4,247.1c-17,0-31-5.5-41.9-16.4c-10.9-11-16.3-25.5-16.3-43.6c0-18.1,5.4-32.6,16.2-43.3
		c10.8-10.7,24.8-16.1,42-16.1s31.4,5.3,42.7,15.9c11.3,10.6,17,25.3,17,44.2c0,4-0.3,7.8-0.8,11.3h-80.4c0.7,5.2,3,9.4,6.9,12.7
		c3.9,3.3,8.1,4.9,12.7,4.9c4.5,0,7.9-0.5,10.2-1.4c2.2-0.9,3.9-1.8,4.9-2.7c1-0.9,2.4-2.4,4.1-4.5h38.7
		c-3.3,11.7-10,21.2-20.1,28.4C1262.2,243.5,1250.3,247.1,1236.4,247.1z M1251.9,163.5c-4.3-3.5-9.3-5.2-15.1-5.2
		c-5.8,0-10.7,1.7-14.7,5.2c-4,3.5-6.4,8-7.4,13.5h44.4C1258.6,171.5,1256.2,167,1251.9,163.5z"/>
</g>
<g>
	<defs>
		<path id="SVGID_1_" d="M282.1,80l-106-61.2c-10.3-5.9-22.9-5.9-33.2,0L36.9,80c-10.3,5.9-16.6,16.9-16.6,28.7l0,122.4
			c0,11.9,6.3,22.8,16.6,28.7l106,61.2c10.3,5.9,22.9,5.9,33.2,0l106-61.2c10.3-5.9,16.6-16.9,16.6-28.7l0-122.4
			C298.7,96.9,292.4,85.9,282.1,80z"/>
	</defs>
	<clipPath id="SVGID_2_">
		<use xlink:href="#SVGID_1_"  style="overflow:visible;"/>
	</clipPath>
	<path class="st1" d="M282.1,80l-106-61.2c-10.3-5.9-22.9-5.9-33.2,0L36.9,80c-10.3,5.9-16.6,16.9-16.6,28.7l0,122.4
		c0,11.9,6.3,22.8,16.6,28.7l106,61.2c10.3,5.9,22.9,5.9,33.2,0l106-61.2c10.3-5.9,16.6-16.9,16.6-28.7l0-122.4
		C298.7,96.9,292.4,85.9,282.1,80z"/>
	<path class="st2" d="M282.1,80l-106-61.2c-10.3-5.9-22.9-5.9-33.2,0L36.9,80c-10.3,5.9-16.6,16.9-16.6,28.7l0,122.4
		c0,11.9,6.3,22.8,16.6,28.7l106,61.2c10.3,5.9,22.9,5.9,33.2,0l106-61.2c10.3-5.9,16.6-16.9,16.6-28.7l0-122.4
		C298.7,96.9,292.4,85.9,282.1,80z"/>
	<path class="st3" d="M252.8,0.3l-114.3-66c-7.7-4.4-17.2-4.4-24.9,0L-0.6,0.3c-7.7,4.4-12.4,12.7-12.4,21.6l0,132
		c0,8.9,4.7,17.1,12.4,21.6l114.3,66c7.7,4.4,17.2,4.4,24.9,0l114.3-66c7.7-4.4,12.4-12.7,12.4-21.6l0-132
		C265.3,12.9,260.5,4.7,252.8,0.3z"/>
	<path class="st4" d="M427.1-27.5l-114.3-66c-7.7-4.4-17.2-4.4-24.9,0l-114.3,66c-7.7,4.4-12.4,12.7-12.4,21.6l0,132
		c0,8.9,4.7,17.1,12.4,21.6l114.3,66c7.7,4.4,17.2,4.4,24.9,0l114.3-66c7.7-4.4,12.4-12.7,12.4-21.6l0-132
		C439.5-14.8,434.8-23,427.1-27.5z"/>
</g>
</svg>
