<?xml version="1.0" encoding="utf-8"?>
<!-- Generator: Adobe Illustrator 22.1.0, SVG Export Plug-In . SVG Version: 6.00 Build 0)  -->
<svg version="1.1" id="On_Light_copy_2" xmlns="http://www.w3.org/2000/svg" xmlns:xlink="http://www.w3.org/1999/xlink" x="0px"
	 y="0px" viewBox="0 0 765 768" style="enable-background:new 0 0 765 768;" xml:space="preserve">
<style type="text/css">
	.st0{fill:#4A9CE5;}
	.st1{opacity:0.4;}
	.st2{fill:#99DDFF;}
	.st3{fill:#FFFFFF;}
</style>
<title>WordPatch_Final2</title>
<path class="st0" d="M197.6,86.7h-81.5c-18,0-32.6,14.6-32.6,32.6v0v81.5l-0.2,369.6v81.4c0,18,14.6,32.6,32.6,32.6c0,0,0,0,0,0
	h81.5l369.6,0.2h81.4c18,0,32.6-14.6,32.6-32.6c0,0,0,0,0,0v-81.4V509v-92.4V355v-92.4V201v-81.5c0-18-14.6-32.6-32.6-32.6
	c0,0,0,0,0,0H567L197.6,86.7z"/>
<g class="st1">
	<polygon class="st2" points="261.8,684.5 285.9,684.5 681.1,289.7 681.2,265.6 	"/>
	<polygon class="st2" points="310.1,684.5 334.2,684.5 681.1,338 681.1,313.8 	"/>
	<polygon class="st2" points="358.3,684.5 382.4,684.5 681.1,386.2 681.1,362.1 	"/>
	<polygon class="st2" points="213.6,684.4 237.7,684.5 681.2,241.5 681.2,217.4 	"/>
	<polygon class="st2" points="165.4,684.4 189.5,684.4 681.2,193.3 681.2,169.2 	"/>
	<path class="st2" d="M647.4,684.7h0.8c18,0,32.6-14.6,32.6-32.6c0,0,0,0,0,0v-0.8L647.4,684.7z"/>
	<polygon class="st2" points="551.1,684.6 566.9,684.7 575.2,684.7 681,579 681,570.7 681,554.9 	"/>
	<polygon class="st2" points="502.9,684.6 527,684.6 681,530.8 681,509.1 681,506.7 	"/>
	<polygon class="st2" points="454.7,684.6 478.8,684.6 681,482.6 681,458.5 	"/>
	<polygon class="st2" points="406.5,684.5 430.6,684.6 681.1,434.4 681.1,416.7 681.1,410.3 	"/>
	<polygon class="st2" points="599.3,684.7 623.4,684.7 681,627.2 681,603.1 	"/>
	<polygon class="st2" points="117.2,684.4 141.3,684.4 681.2,145.1 681.2,121 	"/>
	<polygon class="st2" points="305.5,86.8 281.4,86.7 83.4,284.5 83.4,308.6 	"/>
	<polygon class="st2" points="546.6,86.9 522.5,86.9 83.3,525.6 83.3,549.7 	"/>
	<polygon class="st2" points="498.4,86.9 474.3,86.9 83.3,477.4 83.3,501.5 	"/>
	<polygon class="st2" points="401.9,86.8 377.8,86.8 83.3,380.9 83.3,405 	"/>
	<polygon class="st2" points="450.1,86.9 426,86.8 83.3,429.2 83.3,453.2 	"/>
	<path class="st2" d="M663.4,90.6L86.9,666.5c2.5,5.3,6.4,9.7,11.4,12.8l577.8-577.2c-1.3-2-2.7-3.8-4.4-5.5
		C669.3,94.2,666.5,92.2,663.4,90.6z"/>
	<polygon class="st2" points="594.8,86.9 570.7,86.9 83.2,573.8 83.2,597.9 	"/>
	<polygon class="st2" points="643,87 618.9,86.9 83.2,622 83.2,646.1 	"/>
	<path class="st2" d="M116.5,86.6h-0.4c-18,0-32.6,14.6-32.6,32.6v0v0.4L116.5,86.6z"/>
	<polygon class="st2" points="353.7,86.8 329.6,86.8 83.4,332.7 83.4,356.8 	"/>
	<polygon class="st2" points="209.1,86.7 197.6,86.7 185,86.7 83.5,188.1 83.5,200.7 83.5,212.2 	"/>
	<polygon class="st2" points="257.3,86.7 233.2,86.7 83.4,236.3 83.4,260.4 	"/>
	<polygon class="st2" points="160.9,86.7 140.6,86.7 83.5,143.7 83.5,164 	"/>
</g>
<path class="st3" d="M399.4,224.6c88.9,0,140.1,42.5,140.1,117.7c0,79.1-51.2,124.9-140.1,124.9h-63.1v95h-88.4V224.6H399.4z
	 M336.3,399.7h58.6c38.8,0,61.1-18.8,61.1-54.5c0-35.2-22.3-53.1-61.1-53.1h-58.6V399.7z"/>
<path class="st2" d="M228.5,17.4h-0.1c-17,0-30.7,13.8-30.8,30.7v77.1c0,17,13.8,30.7,30.8,30.8l0,0c17,0,30.7-13.8,30.8-30.7V86.7
	V48.3C259.1,31.3,245.4,17.5,228.5,17.4z"/>
<path class="st2" d="M382.5,17.5h-0.1c-17,0-30.7,13.8-30.8,30.8v77.1c0,17,13.8,30.7,30.7,30.8h0.1c17-0.1,30.7-13.8,30.8-30.7
	V86.8V48.3C413.2,31.3,399.4,17.6,382.5,17.5z"/>
<path class="st2" d="M536.5,17.6h-0.1c-16.9,0-30.7,13.7-30.8,30.7v77.1c0,17,13.7,30.7,30.6,30.8h0.1c17,0,30.8-13.7,30.9-30.7
	V86.9V48.4C567.2,31.4,553.5,17.7,536.5,17.6z"/>
<path class="st2" d="M228.1,615.1H228c-16.9,0.1-30.6,13.8-30.7,30.7V723c0,17,13.8,30.7,30.7,30.8h0.1c17,0,30.7-13.8,30.8-30.7
	v-77C258.9,629,245.1,615.2,228.1,615.1z"/>
<path class="st2" d="M382.1,615.2H382c-17,0-30.7,13.8-30.8,30.7v77.1c0,17,13.8,30.7,30.7,30.8h0.1c17,0,30.7-13.8,30.8-30.7V646
	C412.8,629,399.1,615.3,382.1,615.2z"/>
<path class="st2" d="M536.2,615.3H536c-16.9,0-30.6,13.7-30.7,30.7v77.1c0,17,13.8,30.7,30.7,30.8h0.1c17,0,30.7-13.8,30.8-30.7v-77
	C566.8,629.1,553.1,615.4,536.2,615.3z"/>
<path class="st2" d="M719.7,201h-77.1c-17,0-30.7,13.8-30.8,30.7v0.1c0,17,13.8,30.7,30.7,30.8h38.6h38.5c17,0,30.7-13.8,30.8-30.7
	v-0.1C750.4,214.8,736.7,201.1,719.7,201z"/>
<path class="st2" d="M719.6,355.1h-77.1c-17,0-30.7,13.8-30.8,30.7v0.1c0,17,13.8,30.7,30.7,30.8h38.6h38.5
	c17,0,30.7-13.8,30.8-30.7v-0.1C750.3,368.9,736.6,355.1,719.6,355.1z"/>
<path class="st2" d="M719.5,509.1h-77.1c-17,0-30.7,13.8-30.8,30.7v0.1c0,17,13.8,30.7,30.7,30.8H681h38.6c17,0,30.7-13.8,30.8-30.7
	v-0.1C750.2,522.9,736.5,509.1,719.5,509.1z"/>
<path class="st2" d="M122,200.7H44.9c-17,0-30.7,13.8-30.8,30.7v0.1c0,17,13.8,30.7,30.7,30.8H122c17,0,30.7-13.8,30.8-30.7v-0.1
	C152.7,214.5,139,200.8,122,200.7z"/>
<path class="st2" d="M121.9,354.7H44.8c-16.9,0-30.7,13.7-30.8,30.7v0.1c0,17,13.7,30.8,30.7,30.9h77.1c17,0,30.7-13.8,30.8-30.7
	v-0.1C152.6,368.5,138.9,354.8,121.9,354.7z"/>
<path class="st2" d="M121.8,508.7H44.7c-17,0-30.7,13.8-30.8,30.7v0.1c0,17,13.8,30.7,30.7,30.8h77.1c17,0,30.7-13.8,30.8-30.7v-0.1
	C152.5,522.5,138.8,508.8,121.8,508.7z"/>
</svg>
