<?xml version="1.0" encoding="utf-8"?>
<!-- Generator: Adobe Illustrator 22.1.0, SVG Export Plug-In . SVG Version: 6.00 Build 0)  -->
<svg version="1.1" id="On_Light_copy_2" xmlns="http://www.w3.org/2000/svg" xmlns:xlink="http://www.w3.org/1999/xlink" x="0px"
	 y="0px" viewBox="0 0 892.7 178.1" style="enable-background:new 0 0 892.7 178.1;" xml:space="preserve">
<style type="text/css">
	.st0{fill:#173144;}
	.st1{fill:#4A9CE5;}
	.st2{opacity:0.4;}
	.st3{fill:#99DDFF;}
	.st4{fill:#FFFFFF;}
</style>
<g id="Version_1_3_">
	<g id="Word_14_">
		<polygon class="st0" points="309.9,47.2 290.9,113.1 276.8,58.9 264.8,58.9 253.3,58.9 259.7,82.1 246,110 227.8,47.2 200.4,47.2 
			230.8,136.8 258.5,136.8 268.4,113.7 274.7,136.8 306.7,136.8 337.3,47.2 		"/>
		<path class="st0" d="M399.2,102.2c0,21.3-15.1,35.4-37.7,35.4c-22.7,0-37.8-14.1-37.8-35.4S338.9,67,361.6,67
			C384.1,67,399.2,81,399.2,102.2z M346.2,105.4c2,10.6,9.3,15.4,18.4,13.7c8.9-1.7,14.4-10.2,11.9-19.5
			c-2.7-10.3-9.1-14.4-18.1-12.7C349.4,88.7,344.2,95,346.2,105.4z"/>
		<path class="st0" d="M423.9,75.8c1.3-5.1,9.9-8.5,25.6-8.5l-3.2,20c-12.8-1.2-22.4,11.1-22.4,19.9s0,30.2,0,30.2h-22.2v-69h22.2
			V75.8z"/>
		<path class="st0" d="M521.4,136.8h-22.2v-9.1c-4.9,6.4-11.9,10-20.7,10c-19.5,0-32.3-14.3-32.3-35.7c0-21.1,12.7-35.1,31.8-35.1
			c9.1,0,16.4,3.6,21.3,10V41.8h22.2V136.8z M479.8,119.9c10.2,0.1,16.2-6.7,16.2-17.6c0-10.4-6-17.3-15.9-17.2
			c-10.6,0.2-16.1,7-16.2,17.4C463.8,112.6,469.2,119.7,479.8,119.9z"/>
	</g>
	<g>
		<path class="st1" d="M572,41.5c25,0,39.5,12,39.5,33.2c0,22.3-14.4,35.2-39.5,35.2h-17.8v26.8h-24.9V41.5H572z M554.2,90.8h16.5
			c10.9,0,17.2-5.3,17.2-15.4c0-9.9-6.3-14.9-17.2-14.9h-16.5V90.8z"/>
		<g class="st2">
			<polygon class="st3" points="529.3,80.1 529.3,84.8 554.4,109.8 559,109.8 			"/>
			<polygon class="st3" points="529.3,89.4 529.3,94.1 554.2,119 554.2,114.3 			"/>
			<polygon class="st3" points="529.3,98.7 529.3,103.4 554.2,128.3 554.2,123.6 			"/>
			<polygon class="st3" points="529.3,70.8 529.3,75.4 563.7,109.8 568.4,109.8 			"/>
			<path class="st3" d="M558.7,90.8h-4.5v-4.5l-24.9-24.9v4.7l43.7,43.7c1.5,0,3-0.1,4.5-0.2L558.7,90.8z"/>
			<polygon class="st3" points="529.3,136.1 529.3,136.6 529.8,136.6 			"/>
			<polygon class="st3" points="529.3,126.7 529.3,131.4 534.5,136.6 539.1,136.6 			"/>
			<polygon class="st3" points="529.3,117.4 529.3,122.1 543.8,136.6 548.5,136.6 			"/>
			<polygon class="st3" points="529.3,108.1 529.3,112.7 553.1,136.6 554.2,136.6 554.2,133 			"/>
			<path class="st3" d="M568,90.8h-4.7l18.3,18.3c1.3-0.2,2.6-0.5,3.9-0.8L568,90.8z"/>
			<polygon class="st3" points="554.2,81.6 554.2,77 529.3,52.1 529.3,56.8 			"/>
			<path class="st3" d="M587.8,73.2c0.1,0.7,0.1,1.4,0.1,2.2c0,0.9-0.1,1.7-0.2,2.5l17.7,17.7c0.6-0.9,1.2-1.9,1.8-2.9L587.8,73.2z"
				/>
			<path class="st3" d="M570.3,60.5h0.4c1.7,0,3.2,0.1,4.7,0.4L556,41.5h-4.7L570.3,60.5z"/>
			<path class="st3" d="M584.4,65.2C584.4,65.2,584.4,65.2,584.4,65.2l24.4,24.4c0.5-1.1,0.8-2.3,1.2-3.5l-44.6-44.6h-4.7
				L584.4,65.2z"/>
			<path class="st3" d="M611.4,73.5c0-1.8-0.2-3.5-0.4-5.1l-25.6-25.6c-1.8-0.4-3.6-0.7-5.6-0.9L611.4,73.5z"/>
			<path class="st3" d="M610.8,82.2c0.2-1.3,0.4-2.7,0.5-4.2l-36.6-36.6c-0.9,0-1.8-0.1-2.7-0.1h-2L610.8,82.2z"/>
			<path class="st3" d="M576.7,90.1c-1.3,0.3-2.6,0.5-4.1,0.6l16.6,16.6c1.2-0.4,2.3-0.8,3.4-1.3L576.7,90.1z"/>
			<polygon class="st3" points="554.2,72.3 554.2,67.7 529.3,42.8 529.3,47.4 			"/>
			<polygon class="st3" points="561,60.5 565.7,60.5 546.6,41.5 542,41.5 			"/>
			<path class="st3" d="M586.9,81.7c-0.4,1.1-0.9,2.2-1.6,3.1l15.8,15.8c0.8-0.7,1.6-1.5,2.3-2.3L586.9,81.7z"/>
			<path class="st3" d="M583,87.1c-0.9,0.7-1.8,1.3-2.9,1.8l15.5,15.5c1-0.6,1.9-1.2,2.9-1.8L583,87.1z"/>
			<polygon class="st3" points="554.2,63 554.2,60.5 556.3,60.5 537.3,41.5 532.6,41.5 			"/>
			<path class="st3" d="M592,44.8l17.5,17.4C606.6,54.1,600.6,48.2,592,44.8z"/>
		</g>
		<path class="st1" d="M682.9,88.7v47.8h-23.6v-8.4c-4.9,6.2-12.9,9.5-23.1,9.5c-16.1,0-25.9-9.5-25.9-23c0-13.9,10.2-22,29-22.1
			h19.9v-1.1c0-7.2-4.9-11.5-14.7-11.5c-6.3,0-14.6,2.2-22.5,6.1l-6.9-15.5c11.8-5.3,22.4-8.3,35-8.3
			C670.8,62.2,682.8,72.2,682.9,88.7z M659.1,111.7v-6.5h-15.3c-7.3,0-10.9,2.4-10.9,7.9c0,5.3,3.9,8.7,10.6,8.7
			C651.2,121.8,657.6,117.7,659.1,111.7z"/>
		<g class="st2">
			<path class="st3" d="M642.9,121.7c-1.5-0.1-2.8-0.3-4-0.7l-14.5,14.5c1.1,0.4,2.3,0.8,3.6,1.1L642.9,121.7z"/>
			<path class="st3" d="M654.8,105.2h4.3v0.4l23.1-23.1c-0.3-1.2-0.6-2.5-1.1-3.6L654.8,105.2z"/>
			<path class="st3" d="M659.1,111.7c-1.2,4.8-5.5,8.3-11.1,9.6l-16.2,16.2c1.4,0.2,2.8,0.2,4.3,0.2c0,0,0.1,0,0.1,0l46.6-46.5v-2.4
				c0-0.7,0-1.5-0.1-2.2l-23.7,23.7V111.7z"/>
			<path class="st3" d="M641.3,137.3c2.1-0.2,4-0.7,5.9-1.2l35.8-35.7v-4.7L641.3,137.3z"/>
			<path class="st3" d="M635.9,119.5c-0.9-0.7-1.6-1.6-2.1-2.6l-15.4,15.4c0.9,0.7,1.8,1.3,2.8,1.9L635.9,119.5z"/>
			<path class="st3" d="M659.1,91.5v1h-1l-12.7,12.6h4.7l29.5-29.5c-0.6-1-1.2-1.9-1.9-2.8L659.1,91.5z"/>
			<path class="st3" d="M656.9,84.4c0.7,0.9,1.3,1.9,1.6,3l17-17c-0.8-0.8-1.6-1.5-2.6-2.1L656.9,84.4z"/>
			<path class="st3" d="M633,113c0-4.5,2.6-7,7.6-7.6l12.9-12.8h-4.7l-34.9,34.8c0.6,0.9,1.3,1.8,2.1,2.6L633,113z"/>
			<polygon class="st3" points="682.9,133.1 679.4,136.6 682.9,136.6 			"/>
			<polygon class="st3" points="670.1,136.6 674.8,136.6 682.9,128.4 682.9,123.7 			"/>
			<polygon class="st3" points="660.8,136.6 665.4,136.6 682.9,119.1 682.9,114.4 			"/>
			<polygon class="st3" points="659.3,128.7 659.3,133.4 682.9,109.8 682.9,105.1 			"/>
			<path class="st3" d="M644.1,92.5h-4.7l-28.4,28.4c0.3,1.2,0.7,2.4,1.2,3.5L644.1,92.5z"/>
			<path class="st3" d="M651.2,80.8c1.2,0.4,2.3,0.8,3.2,1.4l15.7-15.7c-1-0.5-2.1-1-3.2-1.5L651.2,80.8z"/>
			<path class="st3" d="M635.7,63.6c-2.1,0.4-4.1,0.9-6.2,1.5l-11.7,11.7l1.4,3.2L635.7,63.6z"/>
			<path class="st3" d="M615.1,70.5l1.4,3.1l6.2-6.2C620.1,68.3,617.6,69.4,615.1,70.5z"/>
			<path class="st3" d="M659.6,63.1L642.7,80c0.6,0,1.2-0.1,1.7-0.1c1,0,1.9,0.1,2.8,0.1l16.1-16.1C662.2,63.6,661,63.3,659.6,63.1z
				"/>
			<path class="st3" d="M629.1,93.6l-18.7,18.7c-0.1,0.8-0.1,1.6-0.1,2.5c0,0.8,0,1.5,0.1,2.2l24.2-24.1
				C632.6,92.9,630.8,93.2,629.1,93.6z"/>
			<path class="st3" d="M641.3,62.8l-20.6,20.5l1.2,2.7c0.5-0.2,0.9-0.4,1.4-0.6l23.1-23C644.6,62.4,642.9,62.6,641.3,62.8z"/>
			<path class="st3" d="M655.5,62.5c-1.4-0.1-2.9-0.2-4.4-0.2L631,82.3c2.2-0.7,4.3-1.2,6.3-1.6L655.5,62.5z"/>
			<path class="st3" d="M622.2,95.8c-5,2.3-8.4,5.8-10.3,10.3L622.2,95.8z"/>
		</g>
		<path class="st1" d="M740.7,132.6c-5.5,3.1-12.9,5-20.2,5c-14.6,0-25-8-25-23.2V82.1H685V66.7h10.5V46.3h24.1v20.2h19.7v15.5
			h-19.7v28.7c0,5.7,2.5,8.2,7,8c2.5,0,5.7-1,9.4-2.4L740.7,132.6z"/>
		<g class="st2">
			<path class="st3" d="M695.5,106.5v4.7l26.4,26.4c1.4,0,2.9-0.2,4.3-0.3L695.5,106.5z"/>
			<path class="st3" d="M695.6,115.9c0.1,2,0.4,3.8,0.8,5.5l15.1,15.1c1.8,0.5,3.7,0.9,5.7,1.1L695.6,115.9z"/>
			<path class="st3" d="M695.5,97.2v4.7l34.7,34.7c1.3-0.3,2.5-0.6,3.7-1L695.5,97.2z"/>
			<path class="st3" d="M726.4,118.8c-4,0.1-6.4-2-6.8-6.8l-24.1-24.1v4.7l41.8,41.7c1.1-0.5,2.2-1,3.1-1.5L726.4,118.8z"/>
			<polygon class="st3" points="685,82.1 689.7,82.1 685,77.4 685,82.1 			"/>
			<polygon class="st3" points="694.4,82.1 695.5,82.1 695.5,83.2 719.6,107.3 719.6,102.6 685,68.1 685,72.7 			"/>
			<path class="st3" d="M734.1,117.1c-1.2,0.5-2.4,0.8-3.5,1.1l8.5,8.4l-1.9-6.6L734.1,117.1z"/>
			<polygon class="st3" points="731.7,82.1 736.4,82.1 720.9,66.6 719.6,66.6 719.6,65.3 700.6,46.3 696,46.3 			"/>
			<polygon class="st3" points="730.2,66.6 725.6,66.6 739.3,80.3 739.3,75.7 			"/>
			<polygon class="st3" points="719.6,60.6 719.6,56 710,46.3 705.3,46.3 			"/>
			<polygon class="st3" points="719.6,51.3 719.6,46.6 719.3,46.3 714.6,46.3 			"/>
			<polygon class="st3" points="739.3,71 739.3,66.6 734.9,66.6 			"/>
			<polygon class="st3" points="693,66.7 688.4,66.7 719.6,97.9 719.6,93.3 			"/>
			<polygon class="st3" points="722.4,82.1 727.1,82.1 695.5,50.6 695.5,55.2 			"/>
			<polygon class="st3" points="695.5,59.9 695.5,64.6 719.6,88.6 719.6,83.9 			"/>
		</g>
		<path class="st1" d="M810.8,79l-17.4,10.2c-3.5-4.8-8.7-7.6-15.3-7.6c-9.4,0-15.8,7.5-15.8,18.5c0,11.3,6.4,18.6,15.8,18.6
			c6.9,0,12.2-2.7,15.4-8.3l17.6,10.1c-6.2,10.7-18.3,17-34.3,17c-23.2,0-38.9-14.9-38.9-37.2c0-22.6,15.8-37.6,39.2-37.6
			C792.2,62.5,804.3,68.5,810.8,79z"/>
		<g class="st2">
			<path class="st3" d="M802.9,115.6L800,114l-15.5,22.9c1.6-0.2,3.1-0.5,4.6-0.8L802.9,115.6z"/>
			<path class="st3" d="M808.6,118.9l-2.9-1.6l-11.7,17.3c2.1-0.8,4-1.7,5.8-2.7L808.6,118.9z"/>
			<path class="st3" d="M794.2,110.7l-18.1,26.7c0.3,0,0.5,0,0.8,0c1.1,0,2.2,0,3.2-0.1l16.9-25L794.2,110.7z"/>
			<path class="st3" d="M785.8,117.3c-1.5,0.6-3.1,1-4.8,1.2l-12.4,18.2c1.2,0.2,2.4,0.4,3.7,0.5L785.8,117.3z"/>
			<path class="st3" d="M810.8,79c-0.5-0.8-1-1.5-1.6-2.2l-3.5,5.2L810.8,79z"/>
			<path class="st3" d="M793.5,89.1l5.6-3.3l7.9-11.7c-0.8-0.8-1.6-1.6-2.4-2.3l-11.5,17C793.3,88.9,793.4,89,793.5,89.1z"/>
			<path class="st3" d="M777,118.6c-1.2-0.1-2.4-0.3-3.5-0.7l-11.6,17c1.1,0.4,2.2,0.7,3.3,1L777,118.6z"/>
			<path class="st3" d="M782.8,62.8c-1.2-0.1-2.5-0.2-3.8-0.2l-37.2,54.9c0.5,1.1,1.1,2.2,1.8,3.2L782.8,62.8z"/>
			<path class="st3" d="M775,62.6c-1.4,0.1-2.9,0.2-4.2,0.4l-31.7,46.8c0.3,1.4,0.7,2.8,1.2,4.1L775,62.6z"/>
			<path class="st3" d="M755.4,68c-3.8,2.2-7,5-9.6,8.3l-2.7,4c-2.1,3.7-3.6,7.8-4.4,12.3L755.4,68z"/>
			<path class="st3" d="M761.3,65.2l-23.2,34.2c0,0.2,0,0.5,0,0.7c0,1.6,0.1,3.3,0.3,4.8l27.9-41.2
				C764.5,64.1,762.9,64.6,761.3,65.2z"/>
			<path class="st3" d="M770.4,116.5c-0.9-0.6-1.8-1.2-2.6-2l-12,17.7c1,0.5,2,1,3,1.5L770.4,116.5z"/>
			<path class="st3" d="M788.2,84.3c0.9,0.6,1.8,1.2,2.6,2l11.2-16.5c-0.9-0.6-1.8-1.2-2.8-1.8L788.2,84.3z"/>
			<path class="st3" d="M773.7,82.2c1.4-0.4,2.9-0.6,4.4-0.6l11.8-17.4c-1.1-0.3-2.3-0.6-3.5-0.8L773.7,82.2z"/>
			<path class="st3" d="M762.8,104.2c-0.2-1.3-0.3-2.7-0.3-4.2c0-0.4,0-0.8,0-1.2l-16.8,24.8c0.7,0.9,1.4,1.8,2.2,2.6L762.8,104.2z"
				/>
			<path class="st3" d="M765.6,111.8c-0.7-1-1.2-2.2-1.7-3.4l-13.6,20c0.8,0.7,1.7,1.4,2.6,2L765.6,111.8z"/>
			<path class="st3" d="M781.9,81.9c1.2,0.2,2.3,0.5,3.4,0.9l11.1-16.4c-1-0.5-2-0.9-3.1-1.3L781.9,81.9z"/>
		</g>
		<path class="st1" d="M892.7,90.4v46.2h-24.2V96.9c0-8.6-5-13.9-13.3-13.9c-9.5,0-15.4,7.3-15.4,17.4v36.1h-24.2V35.7h24.2v39.7
			c5.3-8.7,14.1-13,25.3-13.2C881.8,62.2,892.7,73.2,892.7,90.4z"/>
		<g class="st2">
			<polygon class="st3" points="815.6,97.2 839.8,124.7 839.8,119.7 815.6,92.2 			"/>
			<polygon class="st3" points="815.6,107.2 839.8,134.7 839.8,129.7 815.6,102.2 			"/>
			<polygon class="st3" points="815.6,117.2 832.7,136.6 837.1,136.6 815.6,112.2 			"/>
			<polygon class="st3" points="815.6,87.2 839.8,114.7 839.8,109.7 815.6,82.2 			"/>
			<polygon class="st3" points="868.5,136.6 872.2,136.6 868.5,132.3 			"/>
			<path class="st3" d="M815.6,77.2l24.2,27.5v-4.3c0-0.2,0-0.4,0-0.7l-24.2-27.5V77.2z"/>
			<polygon class="st3" points="815.6,136.6 819.5,136.6 815.6,132.1 			"/>
			<polygon class="st3" points="815.6,127.2 823.9,136.6 828.3,136.6 815.6,122.2 			"/>
			<path class="st3" d="M815.6,67.2l24.8,28.1c0.3-1.3,0.7-2.5,1.2-3.6l-26-29.5V67.2z"/>
			<polygon class="st3" points="868.5,127.3 876.6,136.6 881,136.6 868.5,122.3 			"/>
			<path class="st3" d="M849.7,66l43,48.9v-5l-39.9-45.4C851.7,64.9,850.7,65.4,849.7,66z"/>
			<polygon class="st3" points="839.8,49.8 827.5,35.7 823.1,35.7 839.8,54.8 			"/>
			<polygon class="st3" points="839.8,39.8 836.3,35.7 831.9,35.7 839.8,44.8 			"/>
			<path class="st3" d="M856.2,63.4l36.5,41.5v-5l-32.8-37.3C858.7,62.8,857.4,63.1,856.2,63.4z"/>
			<path class="st3" d="M889.9,76.7l-9-10.3c-2.1-1.3-4.5-2.4-7.1-3.1l18.5,21C891.8,81.6,891,79,889.9,76.7z"/>
			<path class="st3" d="M892.7,89.9l-24.2-27.5c-1.1-0.1-2.2-0.2-3.4-0.2c-0.4,0-0.8,0-1.1,0l28.7,32.6v-4.5
				C892.7,90.2,892.7,90.1,892.7,89.9z"/>
			<polygon class="st3" points="868.5,117.3 885.4,136.6 889.8,136.6 868.5,112.3 			"/>
			<path class="st3" d="M815.6,57.2l27.7,31.5c0.7-0.9,1.4-1.7,2.3-2.4l-30-34.1V57.2z"/>
			<path class="st3" d="M868.5,96.9v0.5l24.2,27.5v-5l-25-28.5C868.2,93.1,868.5,94.9,868.5,96.9z"/>
			<polygon class="st3" points="839.8,59.8 818.7,35.7 815.6,35.7 815.6,37.2 839.8,64.7 			"/>
			<path class="st3" d="M844.3,69.9l11.6,13.2c2,0.1,3.9,0.5,5.5,1.2l-14.5-16.5C846,68.4,845.1,69.1,844.3,69.9z"/>
			<path class="st3" d="M840.1,75l8.4,9.5c1-0.5,2.2-0.9,3.4-1.2L842,72.3C841.3,73.1,840.7,74.1,840.1,75z"/>
			<polygon class="st3" points="839.8,69.7 815.6,42.2 815.6,47.2 839.8,74.7 			"/>
			<polygon class="st3" points="868.5,107.3 892.7,134.9 892.7,129.9 868.5,102.4 			"/>
		</g>
	</g>
</g>
<g>
	<path class="st1" d="M44.4,16.7l-19.7,0c-2.1,0-4.1,0.8-5.6,2.3c-1.5,1.5-2.3,3.5-2.3,5.6l0,19.7l-0.1,89.4l0,19.7
		c0,2.1,0.8,4.1,2.3,5.6c1.5,1.5,3.5,2.3,5.6,2.3l19.7,0l89.4,0.1l19.7,0c2.1,0,4.1-0.8,5.6-2.3c1.5-1.5,2.3-3.5,2.3-5.6l0-19.7
		l0-14.9l0-22.3l0-14.9l0-22.3l0-14.9l0-19.7c0-2.1-0.8-4.1-2.3-5.6c-1.5-1.5-3.5-2.3-5.6-2.3l-19.7,0L44.4,16.7z"/>
	<g class="st2">
		<polygon class="st3" points="59.9,161.3 65.8,161.3 161.3,65.8 161.3,60 		"/>
		<polygon class="st3" points="71.6,161.3 77.4,161.3 161.3,77.5 161.3,71.6 		"/>
		<polygon class="st3" points="83.3,161.3 89.1,161.3 161.3,89.1 161.3,83.3 		"/>
		<polygon class="st3" points="48.3,161.3 54.1,161.3 161.3,54.2 161.3,48.3 		"/>
		<polygon class="st3" points="36.6,161.2 42.5,161.3 161.3,42.5 161.4,36.7 		"/>
		<path class="st3" d="M153.2,161.3l0.2,0c2.1,0,4.1-0.8,5.6-2.3c1.5-1.5,2.3-3.5,2.3-5.6l0-0.2L153.2,161.3z"/>
		<polygon class="st3" points="129.9,161.3 133.7,161.3 135.7,161.3 161.3,135.8 161.3,133.7 161.3,129.9 		"/>
		<polygon class="st3" points="118.2,161.3 124.1,161.3 161.3,124.1 161.3,118.8 161.3,118.3 		"/>
		<polygon class="st3" points="106.6,161.3 112.4,161.3 161.3,112.4 161.3,106.6 		"/>
		<polygon class="st3" points="94.9,161.3 100.7,161.3 161.3,100.8 161.3,96.5 161.3,95 		"/>
		<polygon class="st3" points="141.5,161.3 147.4,161.3 161.3,147.4 161.3,141.6 		"/>
		<polygon class="st3" points="25,161.2 30.8,161.2 161.4,30.8 161.4,25 		"/>
		<polygon class="st3" points="70.5,16.7 64.7,16.7 16.8,64.5 16.8,70.4 		"/>
		<polygon class="st3" points="128.8,16.8 123,16.8 16.8,122.8 16.8,128.7 		"/>
		<polygon class="st3" points="117.1,16.7 111.3,16.7 16.8,111.2 16.8,117 		"/>
		<polygon class="st3" points="93.8,16.7 88,16.7 16.8,87.9 16.8,93.7 		"/>
		<polygon class="st3" points="105.5,16.7 99.6,16.7 16.8,99.5 16.8,105.3 		"/>
		<path class="st3" d="M157,17.7L17.6,156.9c0.4,0.7,0.8,1.4,1.4,2c0.4,0.4,0.9,0.8,1.3,1.1L160.1,20.4c-0.3-0.5-0.7-0.9-1.1-1.3
			C158.5,18.5,157.8,18,157,17.7z"/>
		<polygon class="st3" points="140.5,16.8 134.6,16.8 16.8,134.5 16.7,140.3 		"/>
		<polygon class="st3" points="152.1,16.8 146.3,16.8 16.7,146.2 16.7,152 		"/>
		<path class="st3" d="M24.8,16.7L24.8,16.7c-2.2,0-4.2,0.8-5.7,2.3c-1.5,1.5-2.3,3.5-2.3,5.6l0,0.1L24.8,16.7z"/>
		<polygon class="st3" points="82.2,16.7 76.3,16.7 16.8,76.2 16.8,82 		"/>
		<polygon class="st3" points="47.2,16.7 44.4,16.7 41.4,16.7 16.8,41.2 16.8,44.3 16.8,47.1 		"/>
		<polygon class="st3" points="58.8,16.7 53,16.7 16.8,52.9 16.8,58.7 		"/>
		<polygon class="st3" points="35.5,16.7 30.6,16.7 16.8,30.5 16.8,35.4 		"/>
	</g>
	<path class="st4" d="M127.2,80c0-0.9,0-1.8-0.1-2.7c-0.1-1-0.2-1.9-0.3-2.8c-0.2-1.1-0.3-2.1-0.6-3c-0.3-1.2-0.6-2.3-1-3.4
		c-0.5-1.5-1.2-2.9-1.9-4.2c-3.1-5.5-7.9-9.3-13.7-11.5c-1.5-0.6-3.1-1-4.7-1.4c-1.2-0.3-2.5-0.5-3.8-0.6c-1.1-0.1-2.2-0.2-3.3-0.2
		c-0.3,0-0.6,0-0.8,0l-2.2,0l-3.1,0l-3.1,0l-3.1,0l-3.1,0l-3.1,0l-3.1,0l-3.1,0l-3.1,0l-3.1,0l-3.1,0l-3.1,0l-3.1,0l-1.8,0l0,1.1
		l0,2.6l0,2.6l0,2.6l0,2.6l0,2.6l0,2.6l0,2.6l0,2.6l0,2.6l0,2.6l0,2.6l0,2.6l0,2.6l0,2.6l0,2.6l0,2.6l0,2.6l0,2.6l0,2.6l0,2.6l0,2.6
		l0,2.6l0,2.6l0,2.6l0,2.6l0,2.6l0,2.6l0,2.6l0,2.2l0,2.6l0,2.6l0,1.5l1.8,0l3.1,0l3.1,0l2.6,0l3.1,0l3.1,0l3.1,0l0.6,0l0-2.1l0-2.6
		l0-2.6l0-2.6l0-2.6l0-2.6l0-2.6l0-2.6l0-1.6l1.2,0l3.1,0l3.1,0l3.1,0l3.1,0l3.1,0l3.1,0l1,0c0.7,0,1.3,0,2-0.1
		c0.9-0.1,1.8-0.1,2.7-0.3c0.8-0.1,1.7-0.3,2.5-0.4c0.8-0.2,1.6-0.4,2.3-0.6c0.7-0.2,1.5-0.5,2.2-0.7c0.7-0.3,1.4-0.6,2-0.9
		c0.6-0.3,1.3-0.6,1.9-1c0.6-0.3,1.2-0.7,1.8-1.1c0.6-0.4,1.1-0.8,1.7-1.2c0.5-0.4,1-0.8,1.5-1.3c0.5-0.4,1-0.9,1.4-1.4
		c0.5-0.5,0.9-1,1.3-1.5c0.4-0.5,0.8-1,1.2-1.5c0.4-0.5,0.8-1.1,1.1-1.6c0.4-0.6,0.7-1.1,1-1.7c0.3-0.6,0.6-1.2,0.9-1.8
		c0.3-0.6,0.5-1.3,0.8-1.9c0.2-0.7,0.4-1.3,0.6-2c0.2-0.7,0.4-1.4,0.5-2.1c0.1-0.7,0.3-1.5,0.4-2.3c0.1-0.8,0.2-1.6,0.2-2.4
		c0-0.7,0.1-1.3,0.1-2C127.2,80.3,127.2,80.1,127.2,80z M106.1,77.6c0.2,0.9,0.2,1.8,0.2,2.7c0,0,0,0,0,0c0,0.8-0.1,1.6-0.2,2.4
		c-0.1,0.7-0.3,1.4-0.6,2.1c-0.2,0.7-0.5,1.3-0.8,1.9c-0.3,0.6-0.7,1.1-1.1,1.6c-0.4,0.5-0.9,1-1.4,1.4c-0.5,0.4-1.1,0.8-1.6,1.2
		c-0.6,0.4-1.3,0.7-1.9,0.9c-0.7,0.3-1.5,0.5-2.3,0.6c-0.8,0.1-1.7,0.2-2.5,0.2l-0.3,0l-3.1,0l-3.1,0l-3.1,0l-3.1,0l-3.1,0l-1.7,0
		l0-1.4l0-2.6l0-2.6l0-2.6l0-2.6l0-2.6l0-2.6l0-2.6l0-2.6l0-2.6l0-0.5l2.4,0l3.1,0l3.1,0l3.1,0l3.1,0l2.5,0c0.2,0,0.4,0,0.5,0
		c1.3,0,2.6,0.3,3.8,0.6c3,0.9,5.3,2.9,6.7,5.7C105.5,75.1,105.9,76.3,106.1,77.6z"/>
	<g>
		<path class="st3" d="M51.9,0L51.9,0c-4.1,0-7.5,3.3-7.5,7.4l0,3.7l0,5.6l0,9.3c0,4.1,3.3,7.4,7.4,7.4l0,0c4.1,0,7.4-3.3,7.4-7.4
			l0-9.3l0-5.6l0-3.7C59.3,3.3,56,0,51.9,0z"/>
		<path class="st3" d="M89.1,0L89.1,0c-4.1,0-7.5,3.3-7.5,7.4l0,3.7l0,5.6l0,9.3c0,4.1,3.3,7.4,7.4,7.4l0,0c4.1,0,7.4-3.3,7.4-7.4
			l0-9.3l0-5.6l0-3.7C96.5,3.3,93.2,0,89.1,0z"/>
		<path class="st3" d="M126.4,0L126.4,0c-4.1,0-7.5,3.3-7.5,7.4l0,3.7l0,5.6l0,9.3c0,4.1,3.3,7.4,7.4,7.4l0,0c4.1,0,7.4-3.3,7.4-7.4
			l0-9.3l0-5.6l0-3.7C133.8,3.4,130.4,0,126.4,0z"/>
		<path class="st3" d="M51.8,144.5L51.8,144.5c-4.1,0-7.5,3.3-7.5,7.4l0,9.3l0,5.6l0,3.7c0,4.1,3.3,7.4,7.4,7.4l0,0
			c4.1,0,7.4-3.3,7.4-7.4l0-3.7l0-5.6l0-9.3C59.2,147.8,55.9,144.5,51.8,144.5z"/>
		<path class="st3" d="M89,144.5L89,144.5c-4.1,0-7.5,3.3-7.5,7.4l0,9.3l0,5.6l0,3.7c0,4.1,3.3,7.4,7.4,7.4l0,0
			c4.1,0,7.4-3.3,7.4-7.4l0-3.7l0-5.6l0-9.3C96.5,147.9,93.1,144.5,89,144.5z"/>
		<path class="st3" d="M126.3,144.5L126.3,144.5c-4.1,0-7.5,3.3-7.5,7.4l0,9.3l0,5.6l0,3.7c0,4.1,3.3,7.4,7.4,7.4l0,0
			c4.1,0,7.4-3.3,7.4-7.4l0-3.7l0-5.6l0-9.3C133.7,147.9,130.4,144.5,126.3,144.5z"/>
		<path class="st3" d="M170.7,44.4l-3.7,0l-5.6,0l-9.3,0c-4.1,0-7.4,3.3-7.4,7.4l0,0c0,4.1,3.3,7.4,7.4,7.4l9.3,0l5.6,0l3.7,0
			c4.1,0,7.4-3.3,7.4-7.4l0,0C178.1,47.7,174.8,44.4,170.7,44.4z"/>
		<path class="st3" d="M170.6,81.6l-3.7,0l-5.6,0l-9.3,0c-4.1,0-7.4,3.3-7.4,7.4l0,0c0,4.1,3.3,7.4,7.4,7.4l9.3,0l5.6,0l3.7,0
			c4.1,0,7.4-3.3,7.4-7.4l0,0C178.1,85,174.7,81.6,170.6,81.6z"/>
		<path class="st3" d="M170.6,118.9l-3.7,0l-5.6,0l-9.3,0c-4.1,0-7.4,3.3-7.4,7.4l0,0c0,4.1,3.3,7.4,7.4,7.4l9.3,0l5.6,0l3.7,0
			c4.1,0,7.4-3.3,7.4-7.4l0,0C178.1,122.2,174.7,118.9,170.6,118.9z"/>
		<path class="st3" d="M26.1,44.3l-9.3,0l-5.6,0l-3.7,0c-4.1,0-7.4,3.3-7.4,7.4l0,0c0,4.1,3.3,7.4,7.4,7.4l3.7,0l5.6,0l9.3,0
			c4.1,0,7.4-3.3,7.4-7.4l0,0C33.6,47.6,30.2,44.3,26.1,44.3z"/>
		<path class="st3" d="M26.1,81.5l-9.3,0l-5.6,0l-3.7,0c-4.1,0-7.4,3.3-7.4,7.4l0,0c0,4.1,3.3,7.4,7.4,7.4l3.7,0l5.6,0l9.3,0
			c4.1,0,7.4-3.3,7.4-7.4l0,0C33.5,84.9,30.2,81.5,26.1,81.5z"/>
		<path class="st3" d="M26.1,118.8l-9.3,0l-5.6,0l-3.7,0c-4.1,0-7.4,3.3-7.4,7.4l0,0c0,4.1,3.3,7.4,7.4,7.4l3.7,0l5.6,0l9.3,0
			c4.1,0,7.4-3.3,7.4-7.4l0,0C33.5,122.1,30.2,118.8,26.1,118.8z"/>
	</g>
</g>
</svg>
